<?xml version="1.0" encoding="iso-8859-1"?>
<!-- Generator: Adobe Illustrator 18.1.1, SVG Export Plug-In . SVG Version: 6.00 Build 0)  -->
<svg version="1.1" id="Capa_1" xmlns="http://www.w3.org/2000/svg" xmlns:xlink="http://www.w3.org/1999/xlink" x="0px" y="0px"
	 viewBox="0 0 16 16" style="enable-background:new 0 0 16 16;" xml:space="preserve">
<g>
	<g>
		<path style="fill:#010002;" d="M14,6H4.923V5.077C4.923,3.38,6.303,2,8,2c1.118,0,2.091,0.604,2.629,1.499l0.02-0.015
			c0.183,0.258,0.468,0.438,0.807,0.438c0.552,0,1-0.448,1-1c0-0.135-0.028-0.264-0.077-0.382l-0.011-0.022
			c-0.044-0.1-0.107-0.188-0.182-0.267C11.275,0.9,9.752,0,8,0C5.196,0,2.923,2.273,2.923,5.077V6H2C1.448,6,1,6.448,1,7v8
			c0,0.552,0.448,1,1,1h12c0.552,0,1-0.448,1-1V7C15,6.448,14.552,6,14,6z M8,13c-1.105,0-2-0.895-2-2s0.895-2,2-2s2,0.895,2,2
			S9.105,13,8,13z"/>
	</g>
</g>
<g>
</g>
<g>
</g>
<g>
</g>
<g>
</g>
<g>
</g>
<g>
</g>
<g>
</g>
<g>
</g>
<g>
</g>
<g>
</g>
<g>
</g>
<g>
</g>
<g>
</g>
<g>
</g>
<g>
</g>
</svg>
