<?xml version="1.0" encoding="utf-8"?>
<!-- Generator: Adobe Illustrator 18.1.0, SVG Export Plug-In . SVG Version: 6.00 Build 0)  -->
<svg version="1.1" xmlns="http://www.w3.org/2000/svg" xmlns:xlink="http://www.w3.org/1999/xlink" x="0px" y="0px"
	 viewBox="0 0 87.3 99" enable-background="new 0 0 87.3 99" xml:space="preserve">
<g id="or" display="none">
	<polygon display="inline" fill="#ACB178" points="77.8,95 9.8,99 9.8,0 77.8,4 	"/>
	
		<rect x="71.1" y="13" transform="matrix(0.7071 -0.7071 0.7071 0.7071 8.8358 60.8193)" display="inline" fill="#ACB178" width="13.5" height="13.5"/>
</g>
<g id="green" display="none">
	<polygon display="inline" fill="#ACB178" points="77.8,95 9.8,99 9.8,0 77.8,4 	"/>
	
		<rect x="71.1" y="13" transform="matrix(0.7071 -0.7071 0.7071 0.7071 8.8358 60.8193)" display="inline" fill="#ACB178" width="13.5" height="13.5"/>
</g>
<g id="blue_1_" display="none">
	<polygon display="inline" fill="#8B8EB1" points="77.8,95 9.8,99 9.8,0 77.8,4 	"/>
	
		<rect x="71.1" y="13" transform="matrix(0.7071 -0.7071 0.7071 0.7071 8.8358 60.8193)" display="inline" fill="#8B8EB1" width="13.5" height="13.5"/>
</g>
<g id="red_1_">
	<polygon fill="#C8656D" points="77.8,95 9.8,99 9.8,0 77.8,4 	"/>
	
		<rect x="71.1" y="13" transform="matrix(0.7071 -0.7071 0.7071 0.7071 8.8358 60.8193)" fill="#C8656D" width="13.5" height="13.5"/>
</g>
</svg>
